<svg id="visual" viewBox="0 0 900 600" width="900" height="600" xmlns="http://www.w3.org/2000/svg" xmlns:xlink="http://www.w3.org/1999/xlink" version="1.1"><path d="M0 128L113 142L225 128L338 130L450 138L563 138L675 132L788 124L900 143L900 0L788 0L675 0L563 0L450 0L338 0L225 0L113 0L0 0Z" fill="#1b012d"></path><path d="M0 100L113 104L225 97L338 118L450 104L563 110L675 97L788 117L900 98L900 0L788 0L675 0L563 0L450 0L338 0L225 0L113 0L0 0Z" fill="#512843"></path><path d="M0 83L113 76L225 98L338 96L450 80L563 82L675 96L788 80L900 75L900 0L788 0L675 0L563 0L450 0L338 0L225 0L113 0L0 0Z" fill="#81555e"></path><path d="M0 72L113 62L225 63L338 70L450 63L563 58L675 70L788 56L900 73L900 0L788 0L675 0L563 0L450 0L338 0L225 0L113 0L0 0Z" fill="#aa8883"></path><path d="M0 40L113 36L225 43L338 54L450 42L563 42L675 43L788 42L900 37L900 0L788 0L675 0L563 0L450 0L338 0L225 0L113 0L0 0Z" fill="#d0beb4"></path><path d="M0 32L113 24L225 26L338 28L450 32L563 21L675 32L788 20L900 25L900 0L788 0L675 0L563 0L450 0L338 0L225 0L113 0L0 0Z" fill="#f9f5ef"></path></svg>