<svg id="visual" viewBox="0 0 960 540" width="960" height="540" xmlns="http://www.w3.org/2000/svg" xmlns:xlink="http://www.w3.org/1999/xlink" version="1.1"><path d="M0 353L16 355.3C32 357.7 64 362.3 96 362.7C128 363 160 359 192 357C224 355 256 355 288 355.8C320 356.7 352 358.3 384 358.7C416 359 448 358 480 356.2C512 354.3 544 351.7 576 351.8C608 352 640 355 672 357.3C704 359.7 736 361.3 768 364.3C800 367.3 832 371.7 864 371C896 370.3 928 364.7 944 361.8L960 359L960 541L944 541C928 541 896 541 864 541C832 541 800 541 768 541C736 541 704 541 672 541C640 541 608 541 576 541C544 541 512 541 480 541C448 541 416 541 384 541C352 541 320 541 288 541C256 541 224 541 192 541C160 541 128 541 96 541C64 541 32 541 16 541L0 541Z" fill="#ffffff"></path><path d="M0 390L16 388.7C32 387.3 64 384.7 96 383.5C128 382.3 160 382.7 192 385C224 387.3 256 391.7 288 392.8C320 394 352 392 384 392.7C416 393.3 448 396.7 480 396C512 395.3 544 390.7 576 388.5C608 386.3 640 386.7 672 386.2C704 385.7 736 384.3 768 386.8C800 389.3 832 395.7 864 397.7C896 399.7 928 397.3 944 396.2L960 395L960 541L944 541C928 541 896 541 864 541C832 541 800 541 768 541C736 541 704 541 672 541C640 541 608 541 576 541C544 541 512 541 480 541C448 541 416 541 384 541C352 541 320 541 288 541C256 541 224 541 192 541C160 541 128 541 96 541C64 541 32 541 16 541L0 541Z" fill="#e8d7f0"></path><path d="M0 432L16 429C32 426 64 420 96 418C128 416 160 418 192 418C224 418 256 416 288 417.3C320 418.7 352 423.3 384 424.7C416 426 448 424 480 424C512 424 544 426 576 424C608 422 640 416 672 415.2C704 414.3 736 418.7 768 419.5C800 420.3 832 417.7 864 417.5C896 417.3 928 419.7 944 420.8L960 422L960 541L944 541C928 541 896 541 864 541C832 541 800 541 768 541C736 541 704 541 672 541C640 541 608 541 576 541C544 541 512 541 480 541C448 541 416 541 384 541C352 541 320 541 288 541C256 541 224 541 192 541C160 541 128 541 96 541C64 541 32 541 16 541L0 541Z" fill="#d0afe2"></path><path d="M0 457L16 457.7C32 458.3 64 459.7 96 457.3C128 455 160 449 192 448.3C224 447.7 256 452.3 288 451.7C320 451 352 445 384 443C416 441 448 443 480 447C512 451 544 457 576 456.3C608 455.7 640 448.3 672 447.8C704 447.3 736 453.7 768 455.8C800 458 832 456 864 454.8C896 453.7 928 453.3 944 453.2L960 453L960 541L944 541C928 541 896 541 864 541C832 541 800 541 768 541C736 541 704 541 672 541C640 541 608 541 576 541C544 541 512 541 480 541C448 541 416 541 384 541C352 541 320 541 288 541C256 541 224 541 192 541C160 541 128 541 96 541C64 541 32 541 16 541L0 541Z" fill="#b889d2"></path><path d="M0 486L16 486.7C32 487.3 64 488.7 96 486.8C128 485 160 480 192 479.3C224 478.7 256 482.3 288 482C320 481.7 352 477.3 384 476.8C416 476.3 448 479.7 480 479.7C512 479.7 544 476.3 576 477.3C608 478.3 640 483.7 672 484.7C704 485.7 736 482.3 768 478.8C800 475.3 832 471.7 864 473C896 474.3 928 480.7 944 483.8L960 487L960 541L944 541C928 541 896 541 864 541C832 541 800 541 768 541C736 541 704 541 672 541C640 541 608 541 576 541C544 541 512 541 480 541C448 541 416 541 384 541C352 541 320 541 288 541C256 541 224 541 192 541C160 541 128 541 96 541C64 541 32 541 16 541L0 541Z" fill="#9e62c3"></path><path d="M0 507L16 507.3C32 507.7 64 508.3 96 507.5C128 506.7 160 504.3 192 503.3C224 502.3 256 502.7 288 503.3C320 504 352 505 384 505C416 505 448 504 480 505.2C512 506.3 544 509.7 576 508.5C608 507.3 640 501.7 672 499.2C704 496.7 736 497.3 768 497.8C800 498.3 832 498.7 864 500.8C896 503 928 507 944 509L960 511L960 541L944 541C928 541 896 541 864 541C832 541 800 541 768 541C736 541 704 541 672 541C640 541 608 541 576 541C544 541 512 541 480 541C448 541 416 541 384 541C352 541 320 541 288 541C256 541 224 541 192 541C160 541 128 541 96 541C64 541 32 541 16 541L0 541Z" fill="#823ab4"></path></svg>