<svg id="visual" viewBox="0 0 960 540" width="960" height="540" xmlns="http://www.w3.org/2000/svg" xmlns:xlink="http://www.w3.org/1999/xlink" version="1.1"><path d="M0 420L22.8 419.3C45.7 418.7 91.3 417.3 137 411.5C182.7 405.7 228.3 395.3 274 388.7C319.7 382 365.3 379 411.2 377.8C457 376.7 503 377.3 548.8 384.7C594.7 392 640.3 406 686 411C731.7 416 777.3 412 823 402.5C868.7 393 914.3 378 937.2 370.5L960 363L960 541L937.2 541C914.3 541 868.7 541 823 541C777.3 541 731.7 541 686 541C640.3 541 594.7 541 548.8 541C503 541 457 541 411.2 541C365.3 541 319.7 541 274 541C228.3 541 182.7 541 137 541C91.3 541 45.7 541 22.8 541L0 541Z" fill="#edc048"></path><path d="M0 451L22.8 451C45.7 451 91.3 451 137 448.7C182.7 446.3 228.3 441.7 274 433.5C319.7 425.3 365.3 413.7 411.2 411.2C457 408.7 503 415.3 548.8 422C594.7 428.7 640.3 435.3 686 438.2C731.7 441 777.3 440 823 434C868.7 428 914.3 417 937.2 411.5L960 406L960 541L937.2 541C914.3 541 868.7 541 823 541C777.3 541 731.7 541 686 541C640.3 541 594.7 541 548.8 541C503 541 457 541 411.2 541C365.3 541 319.7 541 274 541C228.3 541 182.7 541 137 541C91.3 541 45.7 541 22.8 541L0 541Z" fill="#f39840"></path><path d="M0 449L22.8 452C45.7 455 91.3 461 137 456.7C182.7 452.3 228.3 437.7 274 432.8C319.7 428 365.3 433 411.2 440.8C457 448.7 503 459.3 548.8 460.7C594.7 462 640.3 454 686 447C731.7 440 777.3 434 823 435.2C868.7 436.3 914.3 444.7 937.2 448.8L960 453L960 541L937.2 541C914.3 541 868.7 541 823 541C777.3 541 731.7 541 686 541C640.3 541 594.7 541 548.8 541C503 541 457 541 411.2 541C365.3 541 319.7 541 274 541C228.3 541 182.7 541 137 541C91.3 541 45.7 541 22.8 541L0 541Z" fill="#ef7048"></path><path d="M0 494L22.8 492.3C45.7 490.7 91.3 487.3 137 486.7C182.7 486 228.3 488 274 489.8C319.7 491.7 365.3 493.3 411.2 492.2C457 491 503 487 548.8 483.7C594.7 480.3 640.3 477.7 686 479.2C731.7 480.7 777.3 486.3 823 483.2C868.7 480 914.3 468 937.2 462L960 456L960 541L937.2 541C914.3 541 868.7 541 823 541C777.3 541 731.7 541 686 541C640.3 541 594.7 541 548.8 541C503 541 457 541 411.2 541C365.3 541 319.7 541 274 541C228.3 541 182.7 541 137 541C91.3 541 45.7 541 22.8 541L0 541Z" fill="#e14857"></path><path d="M0 519L22.8 514.5C45.7 510 91.3 501 137 498.8C182.7 496.7 228.3 501.3 274 502.8C319.7 504.3 365.3 502.7 411.2 505C457 507.3 503 513.7 548.8 511.2C594.7 508.7 640.3 497.3 686 495.5C731.7 493.7 777.3 501.3 823 502.2C868.7 503 914.3 497 937.2 494L960 491L960 541L937.2 541C914.3 541 868.7 541 823 541C777.3 541 731.7 541 686 541C640.3 541 594.7 541 548.8 541C503 541 457 541 411.2 541C365.3 541 319.7 541 274 541C228.3 541 182.7 541 137 541C91.3 541 45.7 541 22.8 541L0 541Z" fill="#c62368"></path></svg>