<svg id="visual" viewBox="0 0 900 600" width="900" height="600" xmlns="http://www.w3.org/2000/svg" xmlns:xlink="http://www.w3.org/1999/xlink" version="1.1"><path d="M0 470L113 485L225 476L338 486L450 467L563 468L675 458L788 472L900 466L900 601L788 601L675 601L563 601L450 601L338 601L225 601L113 601L0 601Z" fill="#c52368"></path><path d="M0 481L113 502L225 492L338 482L450 500L563 477L675 485L788 501L900 496L900 601L788 601L675 601L563 601L450 601L338 601L225 601L113 601L0 601Z" fill="#a11568"></path><path d="M0 502L113 512L225 504L338 510L450 509L563 505L675 513L788 513L900 510L900 601L788 601L675 601L563 601L450 601L338 601L225 601L113 601L0 601Z" fill="#7b0f63"></path><path d="M0 541L113 543L225 523L338 528L450 533L563 529L675 531L788 534L900 536L900 601L788 601L675 601L563 601L450 601L338 601L225 601L113 601L0 601Z" fill="#550d5a"></path><path d="M0 550L113 547L225 552L338 559L450 558L563 553L675 561L788 560L900 553L900 601L788 601L675 601L563 601L450 601L338 601L225 601L113 601L0 601Z" fill="#2f0b4c"></path><path d="M0 575L113 574L225 570L338 576L450 570L563 572L675 566L788 579L900 579L900 601L788 601L675 601L563 601L450 601L338 601L225 601L113 601L0 601Z" fill="#08023b"></path></svg>