<svg id="visual" viewBox="0 0 960 540" width="960" height="540" xmlns="http://www.w3.org/2000/svg" xmlns:xlink="http://www.w3.org/1999/xlink" version="1.1"><path d="M0 421L8.8 424.7C17.7 428.3 35.3 435.7 53.2 436.8C71 438 89 433 106.8 432.5C124.7 432 142.3 436 160 436.3C177.7 436.7 195.3 433.3 213.2 433.3C231 433.3 249 436.7 266.8 436.5C284.7 436.3 302.3 432.7 320 431.3C337.7 430 355.3 431 373.2 432.2C391 433.3 409 434.7 426.8 431.8C444.7 429 462.3 422 480 421.3C497.7 420.7 515.3 426.3 533.2 428.7C551 431 569 430 586.8 427.2C604.7 424.3 622.3 419.7 640 420.5C657.7 421.3 675.3 427.7 693.2 428.2C711 428.7 729 423.3 746.8 425C764.7 426.7 782.3 435.3 800 438.5C817.7 441.7 835.3 439.3 853.2 436.3C871 433.3 889 429.7 906.8 430.2C924.7 430.7 942.3 435.3 951.2 437.7L960 440L960 541L951.2 541C942.3 541 924.7 541 906.8 541C889 541 871 541 853.2 541C835.3 541 817.7 541 800 541C782.3 541 764.7 541 746.8 541C729 541 711 541 693.2 541C675.3 541 657.7 541 640 541C622.3 541 604.7 541 586.8 541C569 541 551 541 533.2 541C515.3 541 497.7 541 480 541C462.3 541 444.7 541 426.8 541C409 541 391 541 373.2 541C355.3 541 337.7 541 320 541C302.3 541 284.7 541 266.8 541C249 541 231 541 213.2 541C195.3 541 177.7 541 160 541C142.3 541 124.7 541 106.8 541C89 541 71 541 53.2 541C35.3 541 17.7 541 8.8 541L0 541Z" fill="#edc048"></path><path d="M0 458L8.8 455.3C17.7 452.7 35.3 447.3 53.2 445.7C71 444 89 446 106.8 447.7C124.7 449.3 142.3 450.7 160 449.3C177.7 448 195.3 444 213.2 445.3C231 446.7 249 453.3 266.8 454.8C284.7 456.3 302.3 452.7 320 450.3C337.7 448 355.3 447 373.2 448.7C391 450.3 409 454.7 426.8 455.5C444.7 456.3 462.3 453.7 480 450.3C497.7 447 515.3 443 533.2 441.2C551 439.3 569 439.7 586.8 441.7C604.7 443.7 622.3 447.3 640 449.8C657.7 452.3 675.3 453.7 693.2 452.3C711 451 729 447 746.8 444.5C764.7 442 782.3 441 800 439.5C817.7 438 835.3 436 853.2 438.3C871 440.7 889 447.3 906.8 450C924.7 452.7 942.3 451.3 951.2 450.7L960 450L960 541L951.2 541C942.3 541 924.7 541 906.8 541C889 541 871 541 853.2 541C835.3 541 817.7 541 800 541C782.3 541 764.7 541 746.8 541C729 541 711 541 693.2 541C675.3 541 657.7 541 640 541C622.3 541 604.7 541 586.8 541C569 541 551 541 533.2 541C515.3 541 497.7 541 480 541C462.3 541 444.7 541 426.8 541C409 541 391 541 373.2 541C355.3 541 337.7 541 320 541C302.3 541 284.7 541 266.8 541C249 541 231 541 213.2 541C195.3 541 177.7 541 160 541C142.3 541 124.7 541 106.8 541C89 541 71 541 53.2 541C35.3 541 17.7 541 8.8 541L0 541Z" fill="#f2a040"></path><path d="M0 454L8.8 456.2C17.7 458.3 35.3 462.7 53.2 463.2C71 463.7 89 460.3 106.8 460.8C124.7 461.3 142.3 465.7 160 466.3C177.7 467 195.3 464 213.2 461.8C231 459.7 249 458.3 266.8 460C284.7 461.7 302.3 466.3 320 467.2C337.7 468 355.3 465 373.2 464C391 463 409 464 426.8 463C444.7 462 462.3 459 480 460.2C497.7 461.3 515.3 466.7 533.2 467C551 467.3 569 462.7 586.8 459.5C604.7 456.3 622.3 454.7 640 455C657.7 455.3 675.3 457.7 693.2 458.2C711 458.7 729 457.3 746.8 456.7C764.7 456 782.3 456 800 458.5C817.7 461 835.3 466 853.2 467.8C871 469.7 889 468.3 906.8 465.5C924.7 462.7 942.3 458.3 951.2 456.2L960 454L960 541L951.2 541C942.3 541 924.7 541 906.8 541C889 541 871 541 853.2 541C835.3 541 817.7 541 800 541C782.3 541 764.7 541 746.8 541C729 541 711 541 693.2 541C675.3 541 657.7 541 640 541C622.3 541 604.7 541 586.8 541C569 541 551 541 533.2 541C515.3 541 497.7 541 480 541C462.3 541 444.7 541 426.8 541C409 541 391 541 373.2 541C355.3 541 337.7 541 320 541C302.3 541 284.7 541 266.8 541C249 541 231 541 213.2 541C195.3 541 177.7 541 160 541C142.3 541 124.7 541 106.8 541C89 541 71 541 53.2 541C35.3 541 17.7 541 8.8 541L0 541Z" fill="#f28044"></path><path d="M0 473L8.8 475.3C17.7 477.7 35.3 482.3 53.2 485.2C71 488 89 489 106.8 487C124.7 485 142.3 480 160 480.2C177.7 480.3 195.3 485.7 213.2 488C231 490.3 249 489.7 266.8 486.3C284.7 483 302.3 477 320 475.5C337.7 474 355.3 477 373.2 477.5C391 478 409 476 426.8 475.8C444.7 475.7 462.3 477.3 480 477.7C497.7 478 515.3 477 533.2 478.5C551 480 569 484 586.8 483.7C604.7 483.3 622.3 478.7 640 476C657.7 473.3 675.3 472.7 693.2 475.5C711 478.3 729 484.7 746.8 487.2C764.7 489.7 782.3 488.3 800 487.8C817.7 487.3 835.3 487.7 853.2 487.3C871 487 889 486 906.8 484.3C924.7 482.7 942.3 480.3 951.2 479.2L960 478L960 541L951.2 541C942.3 541 924.7 541 906.8 541C889 541 871 541 853.2 541C835.3 541 817.7 541 800 541C782.3 541 764.7 541 746.8 541C729 541 711 541 693.2 541C675.3 541 657.7 541 640 541C622.3 541 604.7 541 586.8 541C569 541 551 541 533.2 541C515.3 541 497.7 541 480 541C462.3 541 444.7 541 426.8 541C409 541 391 541 373.2 541C355.3 541 337.7 541 320 541C302.3 541 284.7 541 266.8 541C249 541 231 541 213.2 541C195.3 541 177.7 541 160 541C142.3 541 124.7 541 106.8 541C89 541 71 541 53.2 541C35.3 541 17.7 541 8.8 541L0 541Z" fill="#eb604e"></path><path d="M0 496L8.8 495.2C17.7 494.3 35.3 492.7 53.2 492.5C71 492.3 89 493.7 106.8 496.3C124.7 499 142.3 503 160 504.8C177.7 506.7 195.3 506.3 213.2 504.3C231 502.3 249 498.7 266.8 497.2C284.7 495.7 302.3 496.3 320 496.8C337.7 497.3 355.3 497.7 373.2 498.7C391 499.7 409 501.3 426.8 501.8C444.7 502.3 462.3 501.7 480 501.7C497.7 501.7 515.3 502.3 533.2 502.5C551 502.7 569 502.3 586.8 501.5C604.7 500.7 622.3 499.3 640 497.8C657.7 496.3 675.3 494.7 693.2 493.8C711 493 729 493 746.8 492.8C764.7 492.7 782.3 492.3 800 494C817.7 495.7 835.3 499.3 853.2 499.5C871 499.7 889 496.3 906.8 495.7C924.7 495 942.3 497 951.2 498L960 499L960 541L951.2 541C942.3 541 924.7 541 906.8 541C889 541 871 541 853.2 541C835.3 541 817.7 541 800 541C782.3 541 764.7 541 746.8 541C729 541 711 541 693.2 541C675.3 541 657.7 541 640 541C622.3 541 604.7 541 586.8 541C569 541 551 541 533.2 541C515.3 541 497.7 541 480 541C462.3 541 444.7 541 426.8 541C409 541 391 541 373.2 541C355.3 541 337.7 541 320 541C302.3 541 284.7 541 266.8 541C249 541 231 541 213.2 541C195.3 541 177.7 541 160 541C142.3 541 124.7 541 106.8 541C89 541 71 541 53.2 541C35.3 541 17.7 541 8.8 541L0 541Z" fill="#dc405a"></path><path d="M0 509L8.8 509.7C17.7 510.3 35.3 511.7 53.2 513.2C71 514.7 89 516.3 106.8 516.7C124.7 517 142.3 516 160 516.5C177.7 517 195.3 519 213.2 520.3C231 521.7 249 522.3 266.8 521C284.7 519.7 302.3 516.3 320 514.3C337.7 512.3 355.3 511.7 373.2 513.2C391 514.7 409 518.3 426.8 520.2C444.7 522 462.3 522 480 520.5C497.7 519 515.3 516 533.2 514.5C551 513 569 513 586.8 512.8C604.7 512.7 622.3 512.3 640 512.5C657.7 512.7 675.3 513.3 693.2 514C711 514.7 729 515.3 746.8 514.5C764.7 513.7 782.3 511.3 800 511.3C817.7 511.3 835.3 513.7 853.2 513.7C871 513.7 889 511.3 906.8 511.2C924.7 511 942.3 513 951.2 514L960 515L960 541L951.2 541C942.3 541 924.7 541 906.8 541C889 541 871 541 853.2 541C835.3 541 817.7 541 800 541C782.3 541 764.7 541 746.8 541C729 541 711 541 693.2 541C675.3 541 657.7 541 640 541C622.3 541 604.7 541 586.8 541C569 541 551 541 533.2 541C515.3 541 497.7 541 480 541C462.3 541 444.7 541 426.8 541C409 541 391 541 373.2 541C355.3 541 337.7 541 320 541C302.3 541 284.7 541 266.8 541C249 541 231 541 213.2 541C195.3 541 177.7 541 160 541C142.3 541 124.7 541 106.8 541C89 541 71 541 53.2 541C35.3 541 17.7 541 8.8 541L0 541Z" fill="#c62368"></path></svg>