<svg id="visual" viewBox="0 0 960 540" width="960" height="540" xmlns="http://www.w3.org/2000/svg" xmlns:xlink="http://www.w3.org/1999/xlink" version="1.1"><path d="M0 162L64 158L128 171L192 169L256 181L320 176L384 159L448 175L512 179L576 161L640 167L704 170L768 162L832 172L896 158L960 177L960 0L896 0L832 0L768 0L704 0L640 0L576 0L512 0L448 0L384 0L320 0L256 0L192 0L128 0L64 0L0 0Z" fill="#833ab4"></path><path d="M0 141L64 138L128 150L192 132L256 144L320 137L384 129L448 130L512 151L576 139L640 137L704 128L768 147L832 129L896 139L960 143L960 0L896 0L832 0L768 0L704 0L640 0L576 0L512 0L448 0L384 0L320 0L256 0L192 0L128 0L64 0L0 0Z" fill="#9a30a6"></path><path d="M0 101L64 122L128 102L192 109L256 114L320 123L384 121L448 109L512 112L576 123L640 102L704 102L768 114L832 108L896 125L960 120L960 0L896 0L832 0L768 0L704 0L640 0L576 0L512 0L448 0L384 0L320 0L256 0L192 0L128 0L64 0L0 0Z" fill="#ab2797"></path><path d="M0 94L64 74L128 93L192 75L256 96L320 92L384 80L448 89L512 94L576 96L640 81L704 83L768 78L832 80L896 85L960 84L960 0L896 0L832 0L768 0L704 0L640 0L576 0L512 0L448 0L384 0L320 0L256 0L192 0L128 0L64 0L0 0Z" fill="#b82087"></path><path d="M0 64L64 55L128 50L192 64L256 52L320 59L384 59L448 64L512 62L576 52L640 49L704 63L768 50L832 54L896 61L960 56L960 0L896 0L832 0L768 0L704 0L640 0L576 0L512 0L448 0L384 0L320 0L256 0L192 0L128 0L64 0L0 0Z" fill="#c11e77"></path><path d="M0 30L64 24L128 34L192 29L256 23L320 27L384 37L448 30L512 32L576 37L640 37L704 22L768 27L832 29L896 22L960 26L960 0L896 0L832 0L768 0L704 0L640 0L576 0L512 0L448 0L384 0L320 0L256 0L192 0L128 0L64 0L0 0Z" fill="#c62368"></path></svg>